# xmcd
#
# Track frame offsets:
#	150
#	11562
#	17457
#	22665
#	28852
#	29685
#	31042
#	33315
#	37200
#	43385
#	50415
#	57860
#	67227
#	71312
#	78435
#	86045
#	91422
#	95962
#	106327
#	120072
#	126240
#	133460
#	148802
#	159397
#	165822
#
# Disc length: 2265 seconds
#
# Revision: 3
# Processed by: cddbd v1.5.1PL2 Copyright (c) Steve Scherf et al.
# Submitted via: EasyCDDAExtractor 8.0.1.1
#
DISCID=5008d719
DTITLE=Mimi Barthélémy - Chantez! Dansez!
DYEAR=1996
DGENRE=Bébé
TTITLE0=Lè timoun an mwen
TTITLE1=Bakini
TTITLE2=A ti pilon !
TTITLE3=Madan Jan
TTITLE4=Enbesil ! Pitit Sesil !
TTITLE5=Escargot
TTITLE6=Ti jwèt a dwèt
TTITLE7=Madan Arman
TTITLE8=Ti sourit
TTITLE9=Toc toc toc
TTITLE10=Ka madan Brino
TTITLE11=Tigason
TTITLE12=Ou tande ?
TTITLE13=Ti pye lorye
TTITLE14=Balanse Yaya
TTITLE15=Siye bwa !
TTITLE16=Fèy o !
TTITLE17=Dlo cho epi kako
TTITLE18=Papiyon vole !
TTITLE19=Se on tifi
TTITLE20=Ti pye lorye (v.longue)
TTITLE21=Kilès ki ?
TTITLE22=Lago lago
TTITLE23=Tonton Bouki
TTITLE24=Pomme de burin
EXTD=
EXTT0=
EXTT1=
EXTT2=
EXTT3=
EXTT4=
EXTT5=
EXTT6=
EXTT7=
EXTT8=
EXTT9=
EXTT10=
EXTT11=
EXTT12=
EXTT13=
EXTT14=
EXTT15=
EXTT16=
EXTT17=
EXTT18=
EXTT19=
EXTT20=
EXTT21=
EXTT22=
EXTT23=
EXTT24=
PLAYORDER=
